<?xml version="1.0" encoding="utf-8"?>
<!-- Generator: Adobe Illustrator 16.0.4, SVG Export Plug-In . SVG Version: 6.00 Build 0)  -->
<!DOCTYPE svg PUBLIC "-//W3C//DTD SVG 1.0//EN" "http://www.w3.org/TR/2001/REC-SVG-20010904/DTD/svg10.dtd">
<svg version="1.0" id="Layer_1" xmlns="http://www.w3.org/2000/svg" xmlns:xlink="http://www.w3.org/1999/xlink" x="0px" y="0px"
	 width="50px" height="50px" viewBox="0 0 50 50" enable-background="new 0 0 50 50" xml:space="preserve">
<g>
	<ellipse fill="#FFFFFF" cx="169.031" cy="157.929" rx="6.614" ry="6.408"/>
	<path fill="#FFFFFF" d="M176.524,152h3.722c0.814,0,1.754-0.958,1.754-1.775v-3.547c0-0.816-0.939-1.678-1.754-1.678h-3.722
		c-0.816,0-1.524,0.862-1.524,1.678v3.547C175,151.042,175.708,152,176.524,152z"/>
	<path fill="#FFFFFF" d="M179.269,158.058c0,5.476-4.584,10.032-10.237,10.032c-5.652,0-10.236-4.614-10.236-10.09
		c0-0.984,0.15-2,0.424-3H156v14.372c0,0.721,0.783,1.628,1.503,1.628h22.933c0.72,0,1.564-0.907,1.564-1.628V155h-3.155
		C179.12,156,179.269,157.074,179.269,158.058z"/>
	<path fill="#FFFFFF" d="M144,133v50h50v-50H144z M186,170.775c0,2.333-1.893,4.225-4.227,4.225h-24.547
		c-2.334,0-4.227-1.892-4.227-4.225v-24.551c0-2.333,1.893-4.225,4.227-4.225h24.547c2.334,0,4.227,1.892,4.227,4.225V170.775z"/>
</g>
<path fill="#FFFFFF" d="M0,0v51h50V0H0z M25.006,43.505c-1.79,0-3.517-0.263-5.149-0.745c0.689-1.091,1.444-2.493,1.83-3.893
	c0.222-0.809,1.278-4.995,1.278-4.995c0.631,1.203,2.476,2.264,4.438,2.264c5.841,0,9.807-5.325,9.807-12.453
	c0-5.39-4.568-10.411-11.504-10.411c-8.636,0-12.988,6.191-12.988,11.353c0,3.125,1.182,5.906,3.722,6.941
	c0.416,0.17,0.787,0.007,0.909-0.456c0.084-0.318,0.285-1.121,0.369-1.458c0.124-0.456,0.077-0.614-0.259-1.012
	c-0.731-0.864-1.199-1.98-1.199-3.565c0-4.591,3.435-8.7,8.946-8.7c4.879,0,7.561,2.981,7.561,6.962
	c0,5.241-2.318,9.661-5.763,9.661c-1.898,0-3.321-1.572-2.865-3.5c0.544-2.301,1.604-4.787,1.604-6.448
	c0-1.486-0.799-2.727-2.45-2.727c-1.944,0-3.507,2.012-3.507,4.703c0,1.715,0.582,2.874,0.582,2.874s-1.988,8.427-2.339,9.904
	c-0.325,1.378-0.367,2.901-0.315,4.172c-6.404-2.811-10.878-9.203-10.878-16.644c0-10.037,8.137-18.172,18.172-18.172
	s18.17,8.135,18.17,18.172C43.176,35.37,35.041,43.505,25.006,43.505z"/>
<path fill="#FFFFFF" d="M156,57v50h20V87h-6v-7h6v-5.934c0-6.551,4.125-10.118,9.969-10.118c2.802,0,5.031,0.208,6.031,0.301v6.845
	l-4.127,0.002c-3.178,0-3.873,1.51-3.873,3.725V80h7.912l-0.987,7H184v20h22V57H156z"/>
<path fill="#FFFFFF" d="M74,133v50h50v-50H74z M112.491,151.119c0.011,0.297,0.019,0.593,0.019,0.89
	c0,9.082-6.911,19.55-19.55,19.55c-3.882,0-7.494-1.138-10.535-3.086c0.538,0.062,1.084,0.097,1.638,0.097
	c3.221,0,6.184-1.1,8.534-2.941c-3.007-0.058-5.544-2.043-6.418-4.773c0.418,0.08,0.851,0.125,1.292,0.125
	c0.626,0,1.35-0.086,1.926-0.242c-3.143-0.632-5.397-3.409-5.397-6.739v-0.086c1,0.514,1.872,0.825,2.998,0.859
	c-1.843-1.231-3.114-3.336-3.114-5.719c0-1.26,0.311-2.439,0.901-3.456c3.391,4.159,8.438,6.895,14.149,7.18
	c-0.117-0.502-0.185-1.026-0.185-1.565c0-3.794,3.073-6.872,6.869-6.872c1.975,0,3.76,0.834,5.015,2.171
	c1.566-0.308,3.034-0.881,4.36-1.669c-0.512,1.605-1.604,2.951-3.022,3.802c1.39-0.166,2.715-0.535,3.946-1.082
	C114.994,148.941,113.83,150.151,112.491,151.119z"/>
</svg>
