<?xml version="1.0" encoding="utf-8"?>
<!-- Generator: Adobe Illustrator 16.0.4, SVG Export Plug-In . SVG Version: 6.00 Build 0)  -->
<!DOCTYPE svg PUBLIC "-//W3C//DTD SVG 1.0//EN" "http://www.w3.org/TR/2001/REC-SVG-20010904/DTD/svg10.dtd">
<svg version="1.0" id="Layer_1" xmlns="http://www.w3.org/2000/svg" xmlns:xlink="http://www.w3.org/1999/xlink" x="0px" y="0px"
	 width="50px" height="50px" viewBox="0 0 50 50" enable-background="new 0 0 50 50" xml:space="preserve">
<g>
	<ellipse fill="#FFFFFF" cx="95.031" cy="24.929" rx="6.614" ry="6.408"/>
	<path fill="#FFFFFF" d="M102.524,19h3.722c0.814,0,1.754-0.958,1.754-1.775v-3.547c0-0.816-0.939-1.678-1.754-1.678h-3.722
		c-0.816,0-1.524,0.862-1.524,1.678v3.547C101,18.042,101.708,19,102.524,19z"/>
	<path fill="#FFFFFF" d="M105.269,25.058c0,5.476-4.584,10.032-10.237,10.032c-5.652,0-10.236-4.614-10.236-10.09
		c0-0.984,0.15-2,0.424-3H82v14.372C82,37.093,82.783,38,83.503,38h22.933c0.72,0,1.564-0.907,1.564-1.628V22h-3.155
		C105.12,23,105.269,24.074,105.269,25.058z"/>
	<path fill="#FFFFFF" d="M70,0v50h50V0H70z M112,37.775c0,2.333-1.893,4.225-4.227,4.225H83.227C80.893,42,79,40.108,79,37.775
		V13.225C79,10.892,80.893,9,83.227,9h24.547c2.334,0,4.227,1.892,4.227,4.225V37.775z"/>
</g>
<path fill="#FFFFFF" d="M-74-133v51h50v-51H-74z M-48.994-89.495c-1.79,0-3.517-0.263-5.149-0.745
	c0.689-1.091,1.444-2.493,1.83-3.893c0.222-0.809,1.278-4.995,1.278-4.995c0.631,1.203,2.476,2.264,4.438,2.264
	c5.841,0,9.807-5.325,9.807-12.453c0-5.39-4.568-10.411-11.504-10.411c-8.636,0-12.988,6.191-12.988,11.353
	c0,3.125,1.182,5.906,3.722,6.941c0.416,0.17,0.787,0.007,0.909-0.456c0.084-0.318,0.285-1.121,0.369-1.458
	c0.124-0.456,0.077-0.614-0.259-1.012c-0.731-0.864-1.199-1.98-1.199-3.565c0-4.591,3.435-8.7,8.946-8.7
	c4.879,0,7.561,2.981,7.561,6.962c0,5.241-2.318,9.661-5.763,9.661c-1.898,0-3.321-1.572-2.865-3.5
	c0.544-2.301,1.604-4.787,1.604-6.448c0-1.486-0.799-2.727-2.45-2.727c-1.944,0-3.507,2.012-3.507,4.703
	c0,1.715,0.582,2.874,0.582,2.874s-1.988,8.427-2.339,9.904c-0.325,1.378-0.367,2.901-0.315,4.172
	c-6.404-2.811-10.878-9.203-10.878-16.644c0-10.037,8.137-18.172,18.172-18.172s18.17,8.135,18.17,18.172
	C-30.824-97.63-38.959-89.495-48.994-89.495z"/>
<path fill="#FFFFFF" d="M82-76v50h20v-20h-6v-7h6v-5.934c0-6.551,4.125-10.118,9.969-10.118c2.802,0,5.031,0.208,6.031,0.301v6.845
	l-4.127,0.002c-3.178,0-3.873,1.51-3.873,3.725V-53h7.912l-0.987,7H110v20h22v-50H82z"/>
<path fill="#FFFFFF" d="M0,0v50h50V0H0z M38.491,18.119c0.011,0.297,0.019,0.593,0.019,0.89c0,9.082-6.911,19.55-19.55,19.55
	c-3.882,0-7.494-1.138-10.535-3.086c0.538,0.062,1.084,0.097,1.638,0.097c3.221,0,6.184-1.1,8.534-2.941
	c-3.007-0.058-5.544-2.043-6.418-4.773c0.418,0.08,0.851,0.125,1.292,0.125c0.626,0,1.35-0.086,1.926-0.242
	C12.254,27.105,10,24.328,10,20.999v-0.086c1,0.514,1.872,0.825,2.998,0.859c-1.843-1.231-3.114-3.336-3.114-5.719
	c0-1.26,0.311-2.439,0.901-3.456c3.391,4.159,8.438,6.895,14.149,7.18c-0.117-0.502-0.185-1.026-0.185-1.565
	c0-3.794,3.073-6.872,6.869-6.872c1.975,0,3.76,0.834,5.015,2.171c1.566-0.308,3.034-0.881,4.36-1.669
	c-0.512,1.605-1.604,2.951-3.022,3.802c1.39-0.166,2.715-0.535,3.946-1.082C40.994,15.941,39.83,17.151,38.491,18.119z"/>
</svg>
