<?xml version="1.0" encoding="utf-8"?>
<!-- Generator: Adobe Illustrator 16.0.4, SVG Export Plug-In . SVG Version: 6.00 Build 0)  -->
<!DOCTYPE svg PUBLIC "-//W3C//DTD SVG 1.0//EN" "http://www.w3.org/TR/2001/REC-SVG-20010904/DTD/svg10.dtd">
<svg version="1.0" id="Layer_1" xmlns="http://www.w3.org/2000/svg" xmlns:xlink="http://www.w3.org/1999/xlink" x="0px" y="0px"
	 width="220px" height="385px" viewBox="0 0 220 385" enable-background="new 0 0 220 385" xml:space="preserve">
<g>
	<path fill="#FFFFFF" d="M158.814,208.125l52.471,38.608l-37.228,74.914L158.814,208.125z M107.359,252.733l47.345-44.872
		l15.358,114.389L107.359,252.733z M26.161,203.342l0.472,2.357l-0.723,0.097L26.161,203.342z M16.281,202.648l1.175-3.771
		l3.477-2.649h1.901l-1.044,10.127l-0.925,0.128L16.281,202.648z M31.119,207.538l-2.7-13.528v-7.291l6.399-4.143l-1.821,26.297
		L31.119,207.538z M29.423,318.864l9.52-137.337l112.122-0.742l2.975,22.139L31.346,319.208L29.423,318.864z M103.095,172.519
		L150,172.823l0.525,3.926L66.919,177.3L103.095,172.519z M137.708,94.84l1.591-1.697l3.256,24.272L137.708,94.84z M158.069,202.559
		L141.494,79.138l2.947-7.925l26.784-15.837l40.252,186.48L158.069,202.559z M144.154,55.05l4.166-5.841l-4.106,11.04L144.154,55.05
		z M160.35,28.471l8.596-3.011l39.584,11.565L184.14,50.061l-10.151-1.013l-27.307,16.146L160.35,28.471z M129.876,17.867
		l22.676,18.457l-9.82,13.755L129.876,17.867z M147.357,26.886l-0.647-11.644l8.488,11.971l-1.577,4.77L147.357,26.886z
		 M143.119,23.437L120.349,4.904L140.1,54.387l0.194,16.389l-2.939,7.9l1.25,9.298l-5.292,5.646l16.137,75.127l0.003,0.031
		l-46.611-0.304l-67.663,8.949l-10.801,7.096v7.666h-4.81L0.832,206.469l12.566-0.964l6.242,5.22l7.542-1.021l5.488,3.891
		l-7.528,108.614l7.502,1.338l71.783-68.033l68.996,76.495l42.963-86.458l0.023-0.006l-0.008-0.028l0.013-0.026l-0.022-0.016
		L174.893,53.208l0.009-0.007l10.056,1.005l34.209-18.282l-50.333-14.706l-10.358,3.626L141.9,1.467L143.119,23.437z"/>
	<path fill="#FFFFFF" d="M0.832,350.509c0.889,1.333,1.873,2.767,2.956,4.303c1.08,1.535,2.161,3.07,3.243,4.604
		c1.081,1.536,2.131,3.025,3.153,4.463c1.021,1.441,1.94,2.731,2.757,3.874c0.287-0.404,0.697-0.986,1.224-1.75
		c0.529-0.761,1.137-1.635,1.821-2.623c0.684-0.987,1.424-2.045,2.217-3.178c0.792-1.13,1.59-2.268,2.396-3.408
		c0.804-1.144,1.59-2.256,2.359-3.337c0.77-1.086,1.479-2.065,2.127-2.948v26.385h-1.55v-20.601c0-0.237,0.006-0.481,0.017-0.732
		c0.014-0.248,0.02-0.481,0.02-0.695c-0.841,1.144-1.735,2.398-2.685,3.766c-0.949,1.37-1.897,2.751-2.847,4.142
		c-0.949,1.392-1.862,2.743-2.738,4.051c-0.877,1.311-1.663,2.478-2.36,3.5c-0.431-0.571-0.967-1.297-1.604-2.178
		c-0.638-0.879-1.311-1.832-2.019-2.855c-0.708-1.022-1.435-2.077-2.18-3.159c-0.745-1.082-1.442-2.102-2.089-3.054
		c-0.649-0.95-1.22-1.803-1.712-2.553c-0.493-0.75-0.861-1.303-1.1-1.659c0,0.214,0.012,0.447,0.037,0.695
		c0.023,0.251,0.035,0.495,0.035,0.732v20.601H0.832V350.509z"/>
	<path fill="#FFFFFF" d="M30.777,369.968c0,0.832,0.156,1.612,0.468,2.338s0.739,1.357,1.279,1.892
		c0.54,0.536,1.182,0.958,1.928,1.267c0.745,0.311,1.538,0.465,2.378,0.465c0.841,0,1.634-0.154,2.378-0.465
		c0.745-0.309,1.394-0.73,1.947-1.267c0.552-0.534,0.983-1.166,1.296-1.892s0.469-1.506,0.469-2.338c0-0.834-0.156-1.62-0.469-2.358
		c-0.313-0.737-0.744-1.372-1.296-1.907c-0.554-0.539-1.202-0.961-1.947-1.271c-0.745-0.309-1.538-0.463-2.378-0.463
		c-0.84,0-1.633,0.154-2.378,0.463c-0.746,0.31-1.388,0.731-1.928,1.271c-0.54,0.535-0.967,1.17-1.279,1.907
		C30.933,368.348,30.777,369.134,30.777,369.968 M29.551,370.002c0-0.998,0.192-1.939,0.578-2.819c0.383-0.88,0.9-1.649,1.548-2.304
		c0.649-0.654,1.412-1.17,2.289-1.553c0.876-0.381,1.819-0.571,2.829-0.571c0.72,0,1.405,0.103,2.055,0.305
		c0.648,0.201,1.237,0.48,1.765,0.838c0.527,0.356,0.99,0.768,1.388,1.231c0.396,0.465,0.702,0.958,0.918,1.481
		c0-0.595,0.013-1.19,0.035-1.785c0.024-0.596,0.062-1.178,0.11-1.749h1.081v13.817H42.92v-3.536
		c-0.408,1.048-1.153,1.942-2.235,2.68c-1.081,0.736-2.379,1.104-3.891,1.104c-1.034,0-1.988-0.19-2.865-0.57
		c-0.876-0.381-1.638-0.893-2.288-1.535c-0.648-0.642-1.159-1.397-1.531-2.267C29.738,371.901,29.551,370.979,29.551,370.002"/>
	<path fill="#FFFFFF" d="M49.371,369.967c0,0.835,0.156,1.611,0.469,2.338c0.311,0.727,0.738,1.358,1.278,1.893
		c0.542,0.536,1.184,0.958,1.928,1.268c0.746,0.31,1.538,0.466,2.379,0.466c0.84,0,1.633-0.156,2.377-0.466
		c0.745-0.31,1.388-0.731,1.928-1.268c0.541-0.534,0.967-1.166,1.28-1.893c0.312-0.727,0.468-1.503,0.468-2.338
		c0-0.833-0.156-1.617-0.468-2.355c-0.313-0.737-0.74-1.375-1.28-1.911c-0.54-0.536-1.183-0.957-1.928-1.268
		c-0.744-0.31-1.537-0.464-2.377-0.464c-0.842,0-1.634,0.154-2.379,0.464c-0.744,0.311-1.385,0.731-1.928,1.268
		c-0.54,0.536-0.967,1.174-1.278,1.911C49.526,368.35,49.371,369.134,49.371,369.967 M48.109,369.967
		c0-1.022,0.186-1.974,0.558-2.856c0.373-0.881,0.888-1.642,1.55-2.284c0.66-0.644,1.429-1.147,2.305-1.519
		c0.877-0.368,1.82-0.553,2.829-0.553c0.746,0,1.442,0.102,2.091,0.302c0.649,0.205,1.23,0.485,1.747,0.841s0.974,0.768,1.37,1.233
		c0.396,0.463,0.703,0.956,0.918,1.481v-16.78h1.261v27.06h-1.261v-1.678c0-0.331,0.012-0.654,0.036-0.961
		c0.024-0.312,0.037-0.622,0.037-0.93c-0.506,1.071-1.298,1.975-2.379,2.712c-1.081,0.738-2.367,1.107-3.857,1.107
		c-1.032,0-1.986-0.191-2.863-0.572c-0.878-0.38-1.641-0.892-2.288-1.534c-0.649-0.642-1.154-1.397-1.514-2.269
		C48.29,371.9,48.109,370.967,48.109,369.967"/>
	<path fill="#FFFFFF" d="M78.702,367.111c-0.432-0.952-1.063-1.714-1.891-2.286c-0.83-0.571-1.797-0.856-2.902-0.856
		c-0.839,0-1.627,0.161-2.36,0.483c-0.733,0.32-1.37,0.749-1.91,1.284c-0.541,0.535-0.967,1.168-1.279,1.892
		c-0.311,0.726-0.468,1.494-0.468,2.304c0,0.261,0.018,0.513,0.053,0.75c0.036,0.238,0.078,0.476,0.126,0.712
		c0.816-0.331,1.681-0.681,2.596-1.053c0.91-0.366,1.83-0.736,2.754-1.105s1.839-0.731,2.741-1.09
		C77.062,367.79,77.909,367.445,78.702,367.111 M79.027,375.214c-0.649,0.597-1.412,1.065-2.29,1.413
		c-0.875,0.343-1.806,0.515-2.792,0.515c-1.009,0-1.958-0.19-2.846-0.57c-0.89-0.381-1.665-0.893-2.324-1.533
		c-0.662-0.644-1.177-1.399-1.549-2.269c-0.373-0.868-0.56-1.801-0.56-2.802s0.192-1.94,0.577-2.822
		c0.384-0.88,0.9-1.645,1.55-2.302c0.648-0.654,1.41-1.173,2.288-1.554c0.875-0.38,1.819-0.569,2.828-0.569
		c1.537,0,2.853,0.444,3.946,1.337c1.093,0.893,1.904,2.029,2.433,3.409c-0.864,0.334-1.801,0.704-2.81,1.108
		s-2.042,0.821-3.1,1.249c-1.058,0.428-2.101,0.851-3.135,1.268c-1.033,0.417-2.006,0.803-2.919,1.161
		c0.457,1.093,1.185,1.98,2.18,2.658c0.998,0.678,2.132,1.018,3.405,1.018c0.817,0,1.586-0.142,2.308-0.428
		c0.72-0.287,1.345-0.677,1.873-1.178L79.027,375.214z"/>
	<path fill="#FFFFFF" d="M106.017,369.967c0-0.833-0.15-1.617-0.45-2.355c-0.301-0.737-0.721-1.375-1.262-1.911
		c-0.54-0.536-1.171-0.957-1.891-1.268c-0.72-0.31-1.514-0.464-2.378-0.464c-0.843,0-1.635,0.154-2.379,0.464
		c-0.745,0.311-1.387,0.731-1.928,1.268c-0.54,0.536-0.969,1.174-1.28,1.911c-0.313,0.738-0.469,1.522-0.469,2.355
		c0,0.835,0.155,1.611,0.469,2.338c0.311,0.727,0.74,1.358,1.28,1.893c0.541,0.536,1.183,0.958,1.928,1.268
		c0.744,0.31,1.536,0.466,2.379,0.466c0.864,0,1.658-0.156,2.378-0.466c0.72-0.31,1.351-0.731,1.891-1.268
		c0.541-0.534,0.961-1.166,1.262-1.893C105.867,371.578,106.017,370.802,106.017,369.967 M107.35,369.967
		c0,1-0.185,1.94-0.557,2.822c-0.373,0.879-0.883,1.64-1.533,2.282c-0.648,0.643-1.417,1.15-2.306,1.52
		c-0.89,0.367-1.85,0.552-2.883,0.552c-1.418,0-2.679-0.363-3.783-1.087c-1.106-0.729-1.886-1.627-2.342-2.697
		c0,0.31,0.005,0.611,0.018,0.909c0.012,0.299,0.018,0.604,0.018,0.912v1.712H92.72v-27.06h1.261v16.78
		c0.24-0.525,0.56-1.025,0.956-1.501c0.395-0.476,0.858-0.887,1.387-1.231c0.528-0.345,1.118-0.618,1.765-0.823
		c0.649-0.2,1.333-0.302,2.054-0.302c1.01,0,1.952,0.185,2.829,0.553c0.875,0.371,1.64,0.875,2.288,1.519
		c0.65,0.643,1.16,1.403,1.533,2.284C107.165,367.993,107.35,368.944,107.35,369.967"/>
	<path fill="#FFFFFF" d="M113.585,383.533h-1.371c0.289-0.596,0.542-1.148,0.757-1.658c0.217-0.514,0.427-1.03,0.632-1.553
		c0.203-0.525,0.426-1.078,0.667-1.662c0.237-0.583,0.528-1.268,0.863-2.052c-1.104-2.214-2.136-4.463-3.098-6.748
		c-0.96-2.287-2.005-4.548-3.136-6.784h1.334c0.647,1.263,1.225,2.446,1.729,3.553c0.504,1.106,0.974,2.173,1.405,3.195
		c0.432,1.024,0.853,2.01,1.262,2.965c0.409,0.949,0.828,1.89,1.261,2.818c0.434-0.929,0.854-1.869,1.261-2.818
		c0.409-0.955,0.831-1.935,1.261-2.948c0.433-1.011,0.896-2.076,1.388-3.195c0.492-1.117,1.063-2.307,1.712-3.569h1.371
		L113.585,383.533z"/>
	<polygon fill="#FFFFFF" points="135.711,376.894 135.711,351.652 137.225,351.652 137.225,375.464 151.348,375.464 
		151.348,376.894 	"/>
	<rect x="154.087" y="349.832" fill="#FFFFFF" width="1.261" height="27.062"/>
	<path fill="#FFFFFF" d="M160.647,369.968c0,0.832,0.157,1.612,0.468,2.338s0.74,1.357,1.28,1.892
		c0.541,0.536,1.183,0.958,1.927,1.267c0.746,0.311,1.538,0.465,2.379,0.465c0.84,0,1.633-0.154,2.379-0.465
		c0.745-0.309,1.393-0.73,1.945-1.267c0.552-0.534,0.983-1.166,1.299-1.892c0.31-0.726,0.468-1.506,0.468-2.338
		c0-0.834-0.158-1.62-0.468-2.358c-0.316-0.737-0.747-1.372-1.299-1.907c-0.553-0.539-1.201-0.961-1.945-1.271
		c-0.746-0.309-1.539-0.463-2.379-0.463c-0.841,0-1.633,0.154-2.379,0.463c-0.745,0.31-1.386,0.731-1.927,1.271
		c-0.54,0.535-0.97,1.17-1.28,1.907C160.804,368.348,160.647,369.134,160.647,369.968 M159.421,370.002
		c0-0.998,0.193-1.939,0.577-2.819c0.384-0.88,0.899-1.649,1.549-2.304s1.411-1.17,2.29-1.553c0.876-0.381,1.819-0.571,2.827-0.571
		c0.722,0,1.405,0.103,2.056,0.305c0.648,0.201,1.234,0.48,1.766,0.838c0.527,0.356,0.989,0.768,1.386,1.231
		c0.396,0.465,0.704,0.958,0.921,1.481c0-0.595,0.009-1.19,0.035-1.785c0.023-0.596,0.059-1.178,0.109-1.749h1.081v13.817h-1.224
		v-3.536c-0.411,1.048-1.153,1.942-2.235,2.68c-1.08,0.736-2.379,1.104-3.893,1.104c-1.031,0-1.985-0.19-2.862-0.57
		c-0.879-0.381-1.642-0.893-2.289-1.535c-0.651-0.642-1.161-1.397-1.532-2.267C159.608,371.901,159.421,370.979,159.421,370.002"/>
	<path fill="#FFFFFF" d="M179.061,363.076h1.01c0,0.096,0.004,0.321,0.017,0.68c0.012,0.356,0.022,0.738,0.036,1.142
		c0.013,0.404,0.024,0.78,0.036,1.126c0.013,0.344,0.019,0.552,0.019,0.622c0.504-1.142,1.261-2.069,2.27-2.784
		c1.01-0.715,2.223-1.071,3.64-1.071c1.249,0,2.264,0.34,3.045,1.017c0.78,0.681,1.231,1.567,1.35,2.661
		c0.553-1.094,1.322-1.98,2.307-2.661c0.985-0.677,2.164-1.017,3.531-1.017c1.37,0,2.444,0.382,3.225,1.144
		c0.78,0.761,1.195,1.748,1.243,2.964v9.996h-1.26v-9.782c-0.048-0.833-0.348-1.547-0.901-2.144
		c-0.553-0.594-1.358-0.914-2.413-0.964c-0.771,0-1.491,0.126-2.164,0.376c-0.672,0.25-1.267,0.596-1.784,1.035
		c-0.517,0.44-0.932,0.964-1.244,1.57c-0.311,0.606-0.481,1.279-0.504,2.016v7.893h-1.225v-9.782
		c-0.047-0.833-0.354-1.547-0.918-2.144c-0.565-0.594-1.364-0.914-2.397-0.964c-0.792,0-1.53,0.131-2.217,0.393
		c-0.684,0.263-1.285,0.62-1.801,1.072c-0.515,0.452-0.924,0.999-1.224,1.643c-0.3,0.643-0.451,1.333-0.451,2.07v7.712h-1.226
		V363.076z"/>
	<path fill="#FFFFFF" d="M205.798,369.968c0,0.832,0.158,1.612,0.468,2.338c0.312,0.726,0.74,1.357,1.282,1.892
		c0.54,0.536,1.182,0.958,1.926,1.267c0.746,0.311,1.539,0.465,2.379,0.465c0.839,0,1.632-0.154,2.378-0.465
		c0.744-0.309,1.392-0.73,1.945-1.267c0.553-0.534,0.983-1.166,1.299-1.892c0.311-0.726,0.469-1.506,0.469-2.338
		c0-0.834-0.158-1.62-0.469-2.358c-0.315-0.737-0.746-1.372-1.299-1.907c-0.553-0.539-1.201-0.961-1.945-1.271
		c-0.747-0.309-1.539-0.463-2.378-0.463c-0.84,0-1.633,0.154-2.379,0.463c-0.745,0.31-1.386,0.731-1.926,1.271
		c-0.542,0.535-0.97,1.17-1.282,1.907C205.956,368.348,205.798,369.134,205.798,369.968 M204.572,370.002
		c0-0.998,0.194-1.939,0.578-2.819s0.9-1.649,1.549-2.304c0.649-0.654,1.413-1.17,2.29-1.553c0.875-0.381,1.818-0.571,2.827-0.571
		c0.721,0,1.408,0.103,2.057,0.305c0.646,0.201,1.235,0.48,1.764,0.838c0.528,0.356,0.99,0.768,1.386,1.231
		c0.396,0.465,0.704,0.958,0.921,1.481c0-0.595,0.009-1.19,0.034-1.785c0.025-0.596,0.061-1.178,0.109-1.749h1.082v13.817h-1.225
		v-3.536c-0.41,1.048-1.154,1.942-2.235,2.68c-1.081,0.736-2.379,1.104-3.893,1.104c-1.032,0-1.986-0.19-2.863-0.57
		c-0.877-0.381-1.64-0.893-2.288-1.535c-0.65-0.642-1.162-1.397-1.533-2.267C204.76,371.901,204.572,370.979,204.572,370.002"/>
</g>
</svg>
